<svg id="Layer_1" data-name="Layer 1" xmlns="http://www.w3.org/2000/svg" viewBox="0 0 900 900"><defs><style>.cls-1{fill:#94a0b0;}.cls-2{fill:#fff;}.cls-3{fill:#0c74c1;}</style></defs><title>UCBearLogoAlt</title><path class="cls-1" d="M202.36,700.74h0Z"/><path class="cls-1" d="M203.36,701a2.23,2.23,0,0,1-1-.23A5.39,5.39,0,0,1,203.36,701Z"/><path class="cls-1" d="M126.17,795h0Z"/><path class="cls-1" d="M127.55,795.37a3,3,0,0,1-1.38-.33A7,7,0,0,1,127.55,795.37Z"/><path class="cls-2" d="M710.54,700c-1.2.05-2.4.09-3.6.11-16.8.07-33.63,0-50.45.07H621.93l-4.17-5.77-1.93-2.67-.93-1.29h80.41l1.65,1,5.48,3.43C705.13,696.63,707.86,698.33,710.54,700Z"/><path class="cls-2" d="M618.28,104.47l.25.26v2c.08.17.16.35.25.53.16.36.33.73.47,1.12.11.24.22.52.35.84l.12.23.28.88a1.6,1.6,0,0,1,.08.26l.1.27c.06.16.11.34.17.52.11.34.22.7.3,1.06l.09.33,0,.12,0,.22,0,.25.1.54L753.44,59.61V582.89c2.58,8.09,5.31,16.12,8.3,23.93.45,1.19.94,2.42,1.43,3.67V45.1Zm-167,78.59c-.43-.94-.88-1.88-1.3-2.81-.52-1.17-1-2.35-1.53-3.48-.34-.77-.66-1.54-1-2.3L151.21,295.86V679.68c.5-.64,1-1.22,1.46-1.78q4.32-5.08,8.27-10.71V302.38l290.48-119ZM168,690.48l.16,0,0,0Zm-7.36-2.57.29.09v-.45C160.84,687.67,160.74,687.78,160.65,687.91Zm-7.85,10.64a2.71,2.71,0,0,0,1.27.31A6.55,6.55,0,0,0,152.8,698.55Zm0,0h0ZM469.15,175.05c-1.35-2.58-2.6-5.22-3.77-7.93L459,169.71c.28.7.57,1.37.87,2,.48,1.11.95,2.21,1.46,3.3.4.91.82,1.81,1.23,2.7.14.28.27.57.41.85l6.6-2.7C469.45,175.63,469.3,175.34,469.15,175.05Z"/><path class="cls-2" d="M423.11,700.21H395.62c.67-1.49,1.33-3,2-4.51s1.39-3.26,2-4.92a2.71,2.71,0,0,0,.13-.3h16.59l.23.3c1.83,2.52,3.65,5,5.47,7.41C422.29,698.57,422.7,699.39,423.11,700.21Z"/><path class="cls-3" d="M433.85,87.46c0-.59,0-1.18-.07-1.78l.67,1Z"/><path class="cls-3" d="M522.23,301.28C511.76,296,503,289.05,496.64,279.07s-8.66-20.93-11.4-32.77c-2.9,4.7-5.36,8.76-7.88,12.79a34,34,0,0,1-13.27,12.45c-10.84,5.54-20.44,12.82-29.82,20.54s-19,14.92-28.72,22.18c-17.63,13.26-37.78,21.13-58.77,27.24-2.54.73-5,1.66-7.61,2.29-25.95,6.39-45.42,22.14-62.43,42-14.44,16.9-24.37,36.28-32.77,56.52-2.12,5.13-2.16,11.39-2.12,17.12.14,17.23.72,34.46,1.29,51.68.28,8.2-.53,16.07-3.53,23.88-11.77,30.78-23,61.77-34.85,92.54-8.84,23-20.72,44.18-36.55,62.94H168l.16,0c-1.45,1.73-2.94,3.42-4.44,5.09-.91,1-1.85,2-2.78,3a4.06,4.06,0,0,1-2.94,1.59c-1.3,0-2.49-.85-3.94-1.35a6.55,6.55,0,0,0-1.27-.31h0c1.07-1.42,2-2.8,3-4.14l.9-1.25c.24-.31.45-.62.67-.91.89-1.22,1.76-2.4,2.65-3.55.21-.25.4-.52.61-.77h0l.29.09v-.45c.4-.53.83-1,1.26-1.55,14.87-17.55,25.45-37.64,33.79-58.81,11.09-28.21,21.16-56.82,31.68-85.27.52-1.39.74-3,1.59-4.16,7.08-9.47,5.53-20.3,5.47-31.08-.08-19.54.31-39.08.89-58.62a37.85,37.85,0,0,1,3-13c13.73-33.08,33.84-61.42,62.8-83,11.12-8.3,24.19-12.19,37.18-16.19,16.48-5.09,33-9.95,48.14-18.55,15.91-9.05,30.49-20,44.52-31.67,9.9-8.23,20.38-15.37,32.13-20.54a23.46,23.46,0,0,0,12.75-12.58,6.13,6.13,0,0,1,.94-1.75c7.05-7.81,7.95-17.93,9.79-27.5,1.12-5.91.25-11.58-4.8-16.68A88.5,88.5,0,0,1,467,186.45c-1.37-2.56-2.69-5.2-3.94-7.84l6.6-2.7a113.58,113.58,0,0,0,25.76,32.77c8.23,7.2,16.23,14.68,24.5,21.82,2.7,2.32,3.75,4.42.81,8.31-9.67-7.64-19.31-15.24-28.49-22.5-.6,4.75-1.2,9.1-1.67,13.47-.28,2.61-.83,5.33-.42,7.86,2.62,15.85,6.76,31.2,17.2,43.92A147.75,147.75,0,0,0,521.64,296C523.71,297.87,523.82,299.3,522.23,301.28Z"/><path class="cls-3" d="M152.77,698.54h0Z"/><path class="cls-3" d="M152.8,698.55a6.55,6.55,0,0,1,1.27.31A2.71,2.71,0,0,1,152.8,698.55Z"/><path class="cls-3" d="M160.65,687.91c.09-.13.19-.24.29-.36V688Z"/><path class="cls-3" d="M168,690.48h.2l0,0Z"/><path class="cls-3" d="M469.61,175.91l-6.6,2.7c-.14-.28-.27-.57-.41-.85-.41-.89-.83-1.79-1.23-2.7-.51-1.09-1-2.19-1.46-3.3-.3-.68-.59-1.35-.87-2-.08-.18-.15-.37-.23-.55-2.09-5-4-10-5.91-15-3-8.1-6.63-15.61-13.39-21.11a29.35,29.35,0,0,1-10.91-18.26l5.9-7.7v.79c0,6.1,2,11.45,6.73,15.45,10.07,8.58,15.63,19.6,19.73,32.08,1.24,3.78,2.63,7.5,4.17,11.1.08.2.17.39.25.59,1.17,2.71,2.42,5.35,3.77,7.93C469.3,175.34,469.45,175.63,469.61,175.91Z"/><path class="cls-3" d="M433.78,85.68c0,.6.07,1.19.07,1.78l.6-.78Z"/><path class="cls-3" d="M152.77,698.54h0Zm0,0a2.71,2.71,0,0,0,1.27.31A6.55,6.55,0,0,0,152.8,698.55Zm281-612.87c0,.6.07,1.19.07,1.78l.6-.78Z"/><path class="cls-3" d="M152.77,698.54h0Z"/><path class="cls-3" d="M733.34,696.54c.2,1.3-.07,1.86-.68,1.86a3.28,3.28,0,0,1-1.48-.58c-3.34-2-6.73-3.87-10-5.92-.36-.21-.72-.45-1.08-.67s-.49-.29-.72-.45-.32-.2-.49-.3c-1.81-1.14-3.61-2.28-5.43-3.41-11.55-7.24-23.14-14.41-34.4-22.09-17.2-11.75-30.31-27.28-41.65-44.85-13.83-21.41-28.82-42.11-44-62.59-5.15-6.94-12.51-12.23-18.81-18.3a4.65,4.65,0,0,0-3.34-1.52,6.74,6.74,0,0,0-2.52.57c-4.28,1.78-8.75,3.1-13,5A6.12,6.12,0,0,0,552.5,547c-2.58,15.76-4.42,31.57-1.35,47.48,2.69,13.94,8.58,26.76,14.29,39.67,8.95,20.26,21.12,38.49,34,56.31l.23.3c.64.91,1.29,1.78,1.94,2.69-1.35,1.44-2,2.11-2.55,2.11s-1-.52-1.94-1.46q-1.62-1.65-3.17-3.34c-.09-.09-.18-.2-.27-.3-20.31-22-33.69-48.14-44.29-76-6.42-16.89-7.22-34.25-4.51-51.91.77-5,1.38-10.07,2.2-16.13-4.21,1.37-7.78,2.39-11.21,3.71-20.36,7.72-41.11,14-62.85,16.45-.82.1-1.64.17-2.42.24-1.47-4.52-1.43-4.38,3.24-5.94,29.58-9.78,59.34-19.05,88.62-29.65,20.54-7.44,40.42-16.73,60.6-25.18,1.4-.59,2.86-1.06,4.29-1.6l1,1.28a53.62,53.62,0,0,1-4.89,5.49c-9.44,7.88-21,12-31.83,17.21-4.15,2-8.38,3.81-12.49,5.67.12.53.11.75.19.82,17.37,11.65,28.8,28.67,40.61,45.24,10.4,14.56,20.19,29.56,30.07,44.48,11.16,16.82,26.69,28.83,43.11,40,9.91,6.71,19.74,13.56,29.55,20.42l7,4.89.7.5c.16.1.3.21.45.3.92.66,1.83,1.3,2.75,1.92a35.34,35.34,0,0,1,3.1,2.81C735.22,696,734.28,696.25,733.34,696.54Z"/><path class="cls-3" d="M438.1,700.21h-1c-1.64-2.84-3.29-7.22-4.93-9.43l-.23-.3c-11.14-14.94-22-30.1-30.83-47.47-.55,2.09-1,3.53-1.3,5a233.39,233.39,0,0,1-13.55,42.5l-.12.3c-1.36,3.17-2.78,6.3-4.28,9.43-.27.55-.53,1.09-.81,1.64-.76,1.59-1.32,3.64-3.33,3.64a4.8,4.8,0,0,1-1.71-.39c.64-1.64,1.3-3.27,2-4.89,1.29-3.16,2.6-6.29,3.87-9.43a2.71,2.71,0,0,0,.13-.3c1.86-4.62,3.65-9.27,5.17-14,4-12.61,7.2-25.48,10.63-38.26a9.85,9.85,0,0,0,.17-4.91c-3.57-13.7-4.95-27.69-5.34-41.81a22.81,22.81,0,0,0-.36-2.42c-.42,0-.81-.08-1.13-.08a.89.89,0,0,0-.44.09c-14.08,9.11-29.87,14.14-45.67,19.13-3.23,1-4.94,2.58-5.47,6-3.66,23.89-15.2,44-30.55,62.09-4.11,4.83-8.42,9.5-12.81,14.12-3.09,3.25-6.2,6.47-9.31,9.73-1.79,1.87-3.59,3.75-5.37,5.64L278,700.48a3.25,3.25,0,0,1,.26-.27q4.49-4.8,8.95-9.73c15.34-17,30-35.43,38.86-57.84,2.48-6.26,4.33-12.76,6.76-20-6,1.68-11,3.14-16,4.47-3.53.92-7.13,1.55-10.65,2.52a10.39,10.39,0,0,1-2.81.43c-2.48,0-4.53-1.29-6.19-5,36.11-9.57,70.2-23.81,104.53-37.4.31.32.63.67.93,1-.74,1.62-1.56,3.24-2.15,4.92a8.51,8.51,0,0,0-.78,3.71c3.19,25.9,7.32,51.4,22.58,73.83,6.16,9.05,10.38,19.46,15.14,29.44l.13.3c.12.24.23.49.34.73C438.63,693.15,438.42,697.41,438.1,700.21Z"/><path class="cls-3" d="M438.1,700.21c-.05.48-.12.94-.18,1.32a15.14,15.14,0,0,1-.86-1.32Z"/><path class="cls-3" d="M792.55,689.62l-5.4,1.16a260.24,260.24,0,0,1-24-33.14q-5-8.07-9.41-16.5l-.32-.61c-4.18-7.93-8.05-16.09-11.58-24.42C735,600,730.08,583,725.6,566.07c-6.31-23.86-10.91-48.15-17.13-72-4.34-16.65-9.8-33.05-15.47-49.31-3.25-9.3-5.5-18.37-3.32-28.17a5.21,5.21,0,0,0,.14-1.47,3.81,3.81,0,0,0-.46-1.14c-3.35,5-6.61,9.95-9.88,14.85-.4-.12-.82-.23-1.24-.34a39.72,39.72,0,0,1,.89-4.77c3.84-12,7.6-24,11.7-35.88,6.58-19.07,10.95-38.64,11.95-58.74.28-5.48-2.48-11.12-4-16.65a12.5,12.5,0,0,0-2-3.44,175.22,175.22,0,0,1-22.57-44.62c-9.65-27.82-25.77-51.84-44.45-74.25a105.53,105.53,0,0,1-15.59-25.88,33.35,33.35,0,0,1-2.38-9.57c-.19-1.84.87-3.81,1.46-6.16,1.2.88,1.76,1.06,1.91,1.43,6.53,14.71,16,27.42,26.54,39.44a228.89,228.89,0,0,1,43.83,74.55,162.85,162.85,0,0,0,18.32,36.31c4.36,6.47,5.88,13.38,6,21.09a216.58,216.58,0,0,1-11.3,70.27c-5.21,15.85-6.24,32.84.94,49.19,2.45,5.58,3.84,11.64,5.49,17.53,8.42,30.15,16.54,60.39,25.27,90.44,6.1,21,12,42.11,19.83,62.49,1.07,2.83,2.21,5.65,3.39,8.43.1.25.21.51.32.76l.1.24c.41,1,.83,1.91,1.26,2.87s.83,1.89,1.28,2.84c.57,1.28,1.17,2.56,1.78,3.82.26.58.54,1.15.83,1.75.49,1,1,2,1.46,3,0,.07.08.16.13.23s0,0,0,0c.83,1.66,1.68,3.35,2.56,5a474.2,474.2,0,0,0,25.21,42.23C789.89,684.78,791.17,687.27,792.55,689.62Z"/><path class="cls-3" d="M602.92,157.48c-.65,1-1.46,2-2.18,3l-1.13-.51c.56-1.78,1-3.62,1.71-5.33,4.67-11.14,4.3-22.33,2.06-33.49-.1-.51-.21-1-.32-1.53-.43-2-.92-4-1.43-5.94a5.05,5.05,0,0,0-1.09-1.89,7.8,7.8,0,0,0-.9-.92,5.94,5.94,0,0,0-2.68-1.45,32.75,32.75,0,0,0-5.74-.59,13.57,13.57,0,0,0-4.93.8,30.7,30.7,0,0,1-11.5,2.35c-7.2,0-13.82-2.85-20.26-7.68-8.46-6.38-17.09-12.54-25.68-18.77a28.44,28.44,0,0,0-17-5.72,30.48,30.48,0,0,0-3.66.23,42.67,42.67,0,0,1-5.36.32c-13.07,0-24.25-5.92-34.77-13.34-3.7-2.6-7.27-4-10.62-4-4.38,0-8.4,2.32-11.84,7.23-3.73,5.27-6.94,10.88-11.2,16.44l-.6.78c0-.59,0-1.18-.07-1.78a17.25,17.25,0,0,1,.15-4.78,42.49,42.49,0,0,1,8.23-16.25,20.65,20.65,0,0,1,17-8.31c.55,0,1.1,0,1.66,0,2.78.18,5.56,1.81,8.16,3.1,6.51,3.24,12.79,6.94,19.4,9.94a33.6,33.6,0,0,0,14.12,3,41.86,41.86,0,0,0,5.32-.37,34.08,34.08,0,0,1,4.56-.32A30.58,30.58,0,0,1,530.89,78c12.41,9.1,24.71,18.36,37.3,27.72.77-.36,2.16-1.64,3.42-1.64a.5.5,0,0,1,.17,0c.73.07,1.46.11,2.18.11,4.93,0,9.52-1.61,14.3-2.82a13.64,13.64,0,0,1,3.39-.43c5.17,0,10.13,2.93,13.49,7.6.25.33.48.68.7,1,0,.08.11.18.17.26a.08.08,0,0,1,0,0c.12.18.22.36.32.54l.25.42c.08.17.17.3.25.48,0,0,0,0,0,.07a4.51,4.51,0,0,1,.22.44c.11.22.21.44.32.68s.14.32.21.5c.15.37.32.75.46,1.15a.22.22,0,0,0,0,.1.39.39,0,0,1,0,.09c0,.16.11.32.15.48l.17.5a.53.53,0,0,1,0,.12.45.45,0,0,0,0,.11c.09.55.19,1.1.29,1.66s.19,1,.29,1.54c0,.1,0,.21,0,.31C613.16,132.86,610.55,145.57,602.92,157.48Z"/><path class="cls-3" d="M100,804.08c10.28,0,17.38-7,17.38-18.51V734h23.2v51.62c0,23.46-15.72,38.3-40.7,38.3S58.64,809,58.64,785.57V734H81.85v51.62C81.85,797,89.46,804.08,100,804.08Z"/><path class="cls-2" d="M198.52,753c-13.7,0-24.09,10.78-24.09,25s10.39,25.24,24.09,25.24c7.36,0,15.85-4.06,22.07-10.4l13.57,14.58c-9.51,10-23.72,16.49-36.91,16.49-26.76,0-46.67-19.53-46.67-45.66,0-25.61,20.42-44.89,47.56-44.89,13.19,0,27,5.83,35.89,15.22l-13.44,16.1C214.75,757.54,206.26,753,198.52,753Z"/><path class="cls-2" d="M311.9,788.49c0,21.17-15,35.12-37.54,35.12S237,809.66,237,788.49s14.83-35,37.41-35S311.9,767.43,311.9,788.49Zm-52.25.38c0,10.14,6,17,14.71,17s14.84-6.85,14.84-17-6-17.12-14.84-17.12S259.65,778.59,259.65,788.87Z"/><path class="cls-2" d="M393.57,779.61v43.24H371.12V786.08c0-7.74-4.57-12.56-11.67-12.56-7.61.13-12.55,5.33-13.44,13.06v36.27H323.44V754.24H346V765.4c4.82-7.86,12.68-12,22.7-12C383.68,753.36,393.57,763.5,393.57,779.61Z"/><path class="cls-2" d="M432.88,769c-3.8,0-6.47,1.39-6.47,4.31,0,9,36,4.69,35.89,28.53,0,14.08-12.3,22.07-29,22.07-11.54,0-22.57-3.3-30.94-9.77l7.1-14.58c7.86,5.45,16.74,8.5,24.35,8.5,4.18,0,7.23-1.4,7.23-4.19,0-9.38-35.39-4.69-35.39-28.41,0-14.33,12.05-22.19,28.16-22.19a55.7,55.7,0,0,1,28.53,8l-7.61,14.71C446.2,771.49,438.46,769,432.88,769Z"/><path class="cls-2" d="M541.44,754.24v68.61H518.86V811.69c-4.69,8-12.17,12-21.94,12.18-14.83,0-24.47-10.27-24.47-26.25V754.24H495v36.91c0,7.73,4.31,12.43,11,12.43,8-.13,12.8-6.47,12.8-15.47V754.24Z"/><path class="cls-2" d="M581.89,728.75v94.1H559.32v-94.1Z"/><path class="cls-2" d="M639.72,819.3c-4.82,2.92-11.79,4.57-18.26,4.57-13.57.12-23.08-8.37-23.08-23V738.52H620.7v19h17.88v15H620.7v24.85c0,5.58,2.41,8.37,6.47,8.25a23.23,23.23,0,0,0,8.24-2.29Z"/><path class="cls-2" d="M673.83,734.71c0,7.11-4.94,12-11.92,12s-11.92-4.94-11.92-12,5-12,11.92-12S673.83,727.61,673.83,734.71Zm-.76,19.53v68.61H650.63V754.24Z"/><path class="cls-2" d="M760.45,779.61v43.24H738V786.08c0-7.74-4.56-12.56-11.66-12.56-7.61.13-12.56,5.33-13.45,13.06v36.27H690.32V754.24h22.57V765.4c4.82-7.86,12.68-12,22.7-12C750.56,753.36,760.45,763.5,760.45,779.61Z"/><path class="cls-2" d="M841.36,754.24v62.53c0,19.4-14.71,31.7-37.54,31.7-12.43-.13-25-5.71-31.58-15.34l10.28-12.56a27.4,27.4,0,0,0,20.29,10c9.76,0,16.1-5.2,16.1-13.19v-7.23c-4.44,5.71-10.78,8.88-18.77,8.88-18.13,0-29.93-13.19-29.93-33.1,0-19.4,11.55-32.34,29.17-32.34,8.37-.13,15,3.17,19.53,9v-8.37Zm-22.45,32.34c0-9.64-5.45-16-13.69-16s-14,6.47-14,16,5.58,16,14,16S818.91,796,818.91,786.58Z"/></svg>